<?xml version="1.0" encoding="UTF-8" standalone="no"?>
<!-- Generator: Adobe Illustrator 10.0, SVG Export Plug-In . SVG Version: 3.0.0 Build 77)  -->

<svg
   xmlns:ns2="http://ns.adobe.com/AdobeIllustrator/10.0/"
   xmlns:dc="http://purl.org/dc/elements/1.1/"
   xmlns:cc="http://creativecommons.org/ns#"
   xmlns:rdf="http://www.w3.org/1999/02/22-rdf-syntax-ns#"
   xmlns:svg="http://www.w3.org/2000/svg"
   xmlns="http://www.w3.org/2000/svg"
   xmlns:sodipodi="http://sodipodi.sourceforge.net/DTD/sodipodi-0.dtd"
   xmlns:inkscape="http://www.inkscape.org/namespaces/inkscape"
   enable-background="new 0 0 507.349 417.889"
   height="417.889"
   ns2:pageBounds="0 792 612 0"
   ns2:rulerOrigin="0 0"
   ns2:viewOrigin="52 604"
   overflow="visible"
   space="preserve"
   viewBox="0 0 507.349 417.889"
   width="507.349"
   version="1.1"
   id="svg22273"
   sodipodi:docname="capacitors.svg"
   inkscape:version="0.92.1 r15371">
  <defs
     id="defs22277" />
  <sodipodi:namedview
     pagecolor="#ffffff"
     bordercolor="#666666"
     borderopacity="1"
     objecttolerance="10"
     gridtolerance="10"
     guidetolerance="10"
     inkscape:pageopacity="0"
     inkscape:pageshadow="2"
     inkscape:window-width="1366"
     inkscape:window-height="729"
     id="namedview22275"
     showgrid="false"
     inkscape:zoom="0.56474326"
     inkscape:cx="-22.138855"
     inkscape:cy="208.9445"
     inkscape:window-x="0"
     inkscape:window-y="12"
     inkscape:window-maximized="0"
     inkscape:current-layer="svg22273" />
  <metadata
     id="metadata22192">
    <rdf:RDF>
      <cc:Work
         rdf:about="">
        <dc:title>Capacitors</dc:title>
        <dc:description>Capacitors</dc:description>
        <dc:subject>
          <rdf:Bag>
            <rdf:li>science</rdf:li>
            <rdf:li>capacitor</rdf:li>
            <rdf:li>electronic</rdf:li>
          </rdf:Bag>
        </dc:subject>
        <dc:publisher>
          <cc:Agent
             rdf:about="http://www.openclipart.org/">
            <dc:title>Open Clip Art Project</dc:title>
          </cc:Agent>
        </dc:publisher>
        <dc:creator>
          <cc:Agent
             rdf:about="http://web.resource.org/cc/PublicDomain">
            <dc:title>Gerald G.</dc:title>
          </cc:Agent>
        </dc:creator>
        <dc:rights>
          <cc:Agent
             rdf:about="http://web.resource.org/cc/PublicDomain">
            <dc:title>Public Domain</dc:title>
          </cc:Agent>
        </dc:rights>
        <dc:date>2005/05/31</dc:date>
        <dc:format>image/svg+xml</dc:format>
        <dc:type
           rdf:resource="http://purl.org/dc/dcmitype/StillImage" />
        <cc:license
           rdf:resource="http://web.resource.org/cc/PublicDomain" />
        <dc:language>en</dc:language>
      </cc:Work>
      <cc:License
         rdf:about="http://web.resource.org/cc/PublicDomain">
        <cc:permits
           rdf:resource="http://web.resource.org/cc/Reproduction" />
        <cc:permits
           rdf:resource="http://web.resource.org/cc/Distribution" />
        <cc:permits
           rdf:resource="http://web.resource.org/cc/DerivativeWorks" />
      </cc:License>
    </rdf:RDF>
  </metadata>
  <path
     d="m 281.53152,297.16085 c 0,-19.584 -13.464,-35.426 -30.096,-35.426 -16.596,0 -30.06,15.842 -30.06,35.426 -0.036,3.023 -0.036,5.687 0.396,8.134 0.324,2.412 0.9,4.393 1.728,6.48 0.612,2.016 1.8,3.889 2.592,5.615 0.792,1.656 1.8,3.205 1.908,4.5 0,1.189 -1.044,2.053 -1.764,3.133 -0.828,1.043 -2.16,1.871 -2.88,3.061 -0.828,1.043 -1.224,2.088 -1.584,3.563 -0.324,1.332 -0.468,3.24 -0.432,4.752 -0.072,1.369 -0.072,2.629 0,3.637 h 3.816 v -3.385 c -0.036,-0.646 -0.144,-1.188 0.072,-1.906 0.072,-0.828 0.144,-1.297 0.756,-2.232 0.612,-1.045 1.548,-2.449 2.664,-3.24 0.9,-0.863 1.98,-1.477 3.384,-1.439 1.44,-0.072 3.312,0.936 5.076,1.512 1.62,0.576 3.096,1.188 4.572,1.836 1.404,0.539 2.304,0.791 3.96,1.152 1.584,0.215 3.564,0.252 5.796,0.252 2.232,0 4.176,-0.037 5.832,-0.252 1.692,-0.361 2.412,-0.613 3.96,-1.152 1.44,-0.648 2.916,-1.26 4.572,-1.836 1.62,-0.576 3.492,-1.584 5.04,-1.512 1.332,-0.037 2.376,0.576 3.42,1.439 1.044,0.791 1.98,2.195 2.664,3.24 0.504,0.936 0.576,1.404 0.756,2.232 0.18,0.719 0.072,1.26 0.072,1.906 v 3.385 h 3.816 c 0.036,-1.008 0.036,-2.268 0,-3.637 -0.072,-1.512 -0.216,-3.42 -0.432,-4.752 -0.324,-1.475 -0.9,-2.52 -1.584,-3.563 -0.828,-1.189 -2.16,-2.018 -2.88,-3.061 -0.864,-1.08 -1.764,-1.943 -1.728,-3.133 0,-1.295 1.08,-2.844 1.872,-4.5 0.684,-1.727 1.872,-3.6 2.592,-5.615 0.72,-2.088 1.296,-4.068 1.728,-6.48 0.396,-2.447 0.396,-5.111 0.396,-8.134 z"
     ns2:knockout="Off"
     id="path22194"
     inkscape:connector-curvature="0"
     style="clip-rule:evenodd;fill:#c37f33;fill-rule:evenodd" />
  <path
     d="m 251.43552,268.93585 c -2.88,0 -5.868,1.008 -8.424,2.195 -2.556,1.08 -5.256,2.736 -6.984,4.285 -1.908,1.402 -3.816,3.24 -3.924,4.391 -0.108,1.008 1.044,2.592 3.312,2.232 2.196,-0.504 5.652,-3.564 9.54,-4.32 3.816,-0.719 9.072,-0.719 12.996,0 3.816,0.756 7.272,3.816 9.54,4.32 2.16,0.359 3.312,-1.225 3.312,-2.232 -0.18,-1.15 -2.088,-2.988 -3.924,-4.391 -1.8,-1.549 -4.5,-3.205 -6.984,-4.285 -2.628,-1.187 -5.724,-2.195 -8.46,-2.195 z"
     ns2:knockout="Off"
     id="path22196"
     inkscape:connector-curvature="0"
     style="clip-rule:evenodd;fill:#d18836;fill-rule:evenodd" />
  <path
     d="m 251.43552,326.24885 c -2.88,-0.145 -5.868,-1.045 -8.424,-2.16 -2.556,-1.189 -5.256,-2.809 -6.984,-4.285 -1.908,-1.547 -3.816,-3.348 -3.924,-4.428 -0.108,-1.115 1.044,-2.627 3.312,-2.195 2.196,0.432 5.652,3.383 9.54,4.283 3.816,0.684 9.072,0.684 12.996,0 3.816,-0.9 7.272,-3.852 9.54,-4.283 2.16,-0.432 3.312,1.08 3.312,2.195 -0.18,1.08 -2.088,2.881 -3.924,4.428 -1.8,1.477 -4.5,3.096 -6.984,4.285 -2.628,1.115 -5.724,2.015 -8.46,2.16 z"
     ns2:knockout="Off"
     id="path22198"
     inkscape:connector-curvature="0"
     style="clip-rule:evenodd;fill:#b0722e;fill-rule:evenodd" />
  <path
     d="m 221.33952,340.03585 v 72.541 l 3.816,-4.213 v -68.328 z"
     ns2:knockout="Off"
     id="path22200"
     inkscape:connector-curvature="0"
     style="clip-rule:evenodd;fill:#808080;fill-rule:evenodd" />
  <path
     d="m 277.75152,340.03585 v 72.541 l 3.816,-4.213 v -68.328 z"
     ns2:knockout="Off"
     id="path22202"
     inkscape:connector-curvature="0"
     style="clip-rule:evenodd;fill:#808080;fill-rule:evenodd" />
  <path
     d="m 299.484,284.904 c 0,-33.301 0,-66.637 0,-99.937 0,-3.708 2.988,-6.696 6.696,-6.696 17.424,0 34.812,0 52.199,0 3.708,0 6.732,2.988 6.732,6.696 0,33.337 0,66.636 0,99.937 l -0.036,13.068 c 0.072,0.504 0,1.043 -0.216,1.764 -0.216,0.648 -0.685,1.475 -1.26,2.34 -1.225,0.9 -1.801,1.908 -1.872,2.627 -0.072,0.828 0.432,1.369 1.512,2.018 0.684,0.611 1.116,1.15 1.44,2.016 0.287,0.828 0.468,1.584 0.396,2.664 h 0.036 c 0,3.707 -3.024,6.73 -6.732,6.73 -17.388,0 -34.775,0 -52.199,0 -3.708,0 -6.696,-3.023 -6.696,-6.73 -0.108,-1.08 0.072,-1.836 0.396,-2.664 0.288,-0.865 0.721,-1.404 1.44,-2.016 1.08,-0.648 1.584,-1.189 1.512,-2.018 -0.072,-0.719 -0.756,-1.727 -1.908,-2.627 -0.54,-0.865 -1.044,-1.691 -1.224,-2.34 -0.252,-0.721 -0.324,-1.26 -0.216,-1.764 z"
     ns2:knockout="Off"
     id="path22234"
     inkscape:connector-curvature="0"
     style="clip-rule:evenodd;fill-rule:evenodd" />
  <path
     d="m 346.356,318.131 c 17.388,0 -4.176,0 13.212,0 3.708,0 6.731,-3.023 6.731,-6.73 h -0.035 c 0,-1.08 -0.145,-1.836 -0.433,-2.664 -0.288,-0.865 -0.864,-1.404 -1.439,-2.016 -1.116,-0.648 -1.62,-1.189 -1.513,-2.018 0.036,-0.719 0.721,-1.727 1.908,-2.627 0.576,-0.865 1.044,-1.691 1.26,-2.34 0.217,-0.721 0.288,-1.26 0.217,-1.764 l 0.035,-13.068 c 0,-33.301 0,-66.6 0,-99.937 0,-3.708 -3.023,-6.696 -6.731,-6.696 -17.388,0 4.176,0 -13.212,0 z"
     ns2:knockout="Off"
     id="path22236"
     inkscape:connector-curvature="0"
     style="clip-rule:evenodd;fill:#404040;fill-rule:evenodd" />
  <path
     d="m 342.036,178.344 h 10.152 v 139.752 h -10.152 z"
     ns2:knockout="Off"
     id="path22238"
     inkscape:connector-curvature="0"
     style="clip-rule:evenodd;fill:#212121;fill-rule:evenodd" />
  <path
     d="m 312.984,178.272 h 22.824 v 139.824 h -22.824 z"
     ns2:knockout="Off"
     id="path22240"
     inkscape:connector-curvature="0"
     style="clip-rule:evenodd;fill:#ffff00;fill-rule:evenodd" />
  <path
     d="m 312.984,194.616 11.412,8.856 11.412,-9.036 v 5.544 l -11.412,9.036 -11.412,-8.856 z"
     ns2:knockout="Off"
     stroke-miterlimit="10"
     id="path22242"
     inkscape:connector-curvature="0"
     style="clip-rule:evenodd;fill-rule:evenodd;stroke:#000000;stroke-width:0.036;stroke-miterlimit:10" />
  <path
     d="m 312.984,221.473 11.412,8.855 11.412,-9.037 v 5.51 l -11.412,9.07 -11.412,-8.891 z"
     ns2:knockout="Off"
     stroke-miterlimit="10"
     id="path22244"
     inkscape:connector-curvature="0"
     style="clip-rule:evenodd;fill-rule:evenodd;stroke:#000000;stroke-width:0.036;stroke-miterlimit:10" />
  <path
     d="m 312.984,248.328 11.412,8.855 11.412,-9.035 v 5.508 l -11.412,9.035 -11.412,-8.855 z"
     ns2:knockout="Off"
     stroke-miterlimit="10"
     id="path22246"
     inkscape:connector-curvature="0"
     style="clip-rule:evenodd;fill-rule:evenodd;stroke:#000000;stroke-width:0.036;stroke-miterlimit:10" />
  <path
     d="m 312.984,275.148 11.412,8.891 11.412,-9.07 v 5.543 l -11.412,9.035 -11.412,-8.855 z"
     ns2:knockout="Off"
     stroke-miterlimit="10"
     id="path22248"
     inkscape:connector-curvature="0"
     style="clip-rule:evenodd;fill-rule:evenodd;stroke:#000000;stroke-width:0.036;stroke-miterlimit:10" />
  <path
     d="m 313.597,318.168 v 98.568 l 3.815,-5.689 v -92.879 z"
     ns2:knockout="Off"
     id="path22250"
     inkscape:connector-curvature="0"
     style="clip-rule:evenodd;fill:#808080;fill-rule:evenodd" />
  <path
     d="m 348.3,317.412 v 98.568 l 3.816,-5.725 V 317.411 H 348.3 Z"
     ns2:knockout="Off"
     id="path22252"
     inkscape:connector-curvature="0"
     style="clip-rule:evenodd;fill:#808080;fill-rule:evenodd" />
</svg>
