<?xml version="1.0" encoding="UTF-8" standalone="no"?>
<svg
   xmlns:dc="http://purl.org/dc/elements/1.1/"
   xmlns:cc="http://creativecommons.org/ns#"
   xmlns:rdf="http://www.w3.org/1999/02/22-rdf-syntax-ns#"
   xmlns:svg="http://www.w3.org/2000/svg"
   xmlns="http://www.w3.org/2000/svg"
   xmlns:sodipodi="http://sodipodi.sourceforge.net/DTD/sodipodi-0.dtd"
   xmlns:inkscape="http://www.inkscape.org/namespaces/inkscape"
   version="1.1"
   x="0px"
   y="0px"
   viewBox="0 0 91.5 97.6"
   enable-background="new 0 0 91.5 97.6"
   xml:space="preserve"
   id="svg11736"
   sodipodi:docname="gears.svg"
   inkscape:version="0.92.1 r15371"><metadata
     id="metadata11742"><rdf:RDF><cc:Work
         rdf:about=""><dc:format>image/svg+xml</dc:format><dc:type
           rdf:resource="http://purl.org/dc/dcmitype/StillImage" /></cc:Work></rdf:RDF></metadata><defs
     id="defs11740" /><sodipodi:namedview
     pagecolor="#ffffff"
     bordercolor="#666666"
     borderopacity="1"
     objecttolerance="10"
     gridtolerance="10"
     guidetolerance="10"
     inkscape:pageopacity="0"
     inkscape:pageshadow="2"
     inkscape:window-width="1366"
     inkscape:window-height="768"
     id="namedview11738"
     showgrid="false"
     inkscape:zoom="2.4180328"
     inkscape:cx="69.965021"
     inkscape:cy="48.799999"
     inkscape:window-x="0"
     inkscape:window-y="0"
     inkscape:window-maximized="0"
     inkscape:current-layer="svg11736" /><path
     style="fill:#786721"
     inkscape:connector-curvature="0"
     id="path11726"
     d="m 87.427119,10.713559 c 0,-0.1 0,-0.1 0,-0.1 -1.5,-1.9999997 -3.3,-3.6999997 -5.4,-5.2999997 v 0.1 c -1.7,1.3 -3.4,2.7 -5,4.1 -0.7,-0.4 -1.3,-0.7 -1.9,-1 -0.8,-0.4 -1.6,-0.8 -2.5,-1 -0.3,-0.1 -0.6,-0.2 -0.9,-0.2 -0.2,-2.2 -0.4,-4.4 -0.7,-6.59999998 -1,-0.2 -2,-0.2 -3.1,-0.3 -0.3,0 -0.6,0 -0.8,0 -0.3,0 -0.6,0 -0.8,0 -1,0.1 -1.9,0.1 -2.8,0.3 -0.3,2.09999998 -0.5,4.29999998 -0.6,6.49999998 -0.4,0 -0.7,0.1 -1.1,0.2 -0.1,0 -0.2,0 -0.3,0.1 -0.8,0.2 -1.6,0.6 -2.4,1 -0.7,0.3 -1.3,0.6 -1.9,1 -1.7,-1.4 -3.3,-2.7 -5,-4.1 0,0 0,0 -0.1,-0.1 -0.4,0.3 -0.8,0.6 -1.1,0.9 -0.7,0.5 -1.3,1.1 -1.8,1.7 -0.9,0.8 -1.6,1.8 -2.4,2.7999997 0,0 0,0 0.1,0 1.3,1.7 2.7,3.3 4.1,5 -0.4,0.6 -0.8,1.3 -1.1,1.9 -0.4,0.8 -0.7,1.7 -0.9,2.5 -0.2,0.4 -0.3,0.8 -0.3,1.1 -2.2,0.2 -4.4,0.4 -6.5,0.7 -0.2,1 -0.3,2 -0.3,3.1 0,1.5 0.1,3 0.4,4.4 2.1,0.2 4.2,0.4 6.4,0.6 0,0.4 0.1,0.8 0.3,1.1 0.2,0.9 0.5,1.7 0.9,2.6 0.4,0.7 0.7,1.4 1.2,2 -1.4,1.7 -2.8,3.3 -4.1,5 1.5,2.1 3.3,3.9 5.4,5.4 v -0.1 c 1.6,-1.3 3.3,-2.7 4.9,-4.1 h 0.1 c 0.5,0.3 1.1,0.6 1.6,0.9 0.9,0.4 1.9,0.8 2.8,1 0.4,0.1 0.7,0.2 1,0.3 0.2,2.1 0.4,4.3 0.7,6.5 0.9,0.1 1.8,0.2 2.8,0.2 0.2,0 0.8,0 1.5,0 1.1,0 2.2,-0.1 3.3,-0.3 0.2,-2.1 0.4,-4.3 0.6,-6.5 0.3,-0.1 0.6,-0.2 0.9,-0.3 v 0 c 0.9,-0.2 1.7,-0.5 2.5,-0.9 0.7,-0.3 1.4,-0.7 2.1,-1.2 0,0.1 0,0.1 0.1,0.1 1.6,1.4 3.3,2.8 5,4.1 0.3,-0.2 0.6,-0.4 1,-0.7 0.6,-0.5 1.2,-1.1 1.7,-1.7 0.9,-0.9 1.8,-1.9 2.6,-3 -1.4,-1.7 -2.8,-3.4 -4.2,-5 0,-0.1 0,-0.1 0,-0.1 0.3,-0.5 0.6,-1.1 0.9,-1.7 0.3,-0.8 0.7,-1.6 0.9,-2.4 0,-0.1 0,-0.2 0.1,-0.2 0,-0.4 0.1,-0.7 0.2,-0.9 2.2,-0.2 4.4,-0.4 6.5,-0.6 0.2,-1 0.2,-2 0.3,-3 0,-0.3 0,-0.6 0,-0.9 0,-0.2 0,-0.5 0,-0.8 -0.1,-1 -0.1,-2 -0.3,-3 -2.1,-0.2 -4.3,-0.4 -6.5,-0.6 -0.1,-0.3 -0.2,-0.6 -0.2,-0.9 -0.3,-0.9 -0.6,-1.8 -1,-2.7 -0.3,-0.6 -0.7,-1.3 -1,-1.9 1.3,-1.6 2.7,-3.3 4.1,-5 z m -26.7,8.3 c 1.8,-1.9 4,-2.8 6.5,-2.7 2.6,-0.1 4.7,0.8 6.6,2.7 1.8,1.8 2.7,4 2.7,6.5 0,2.6 -0.9,4.7 -2.7,6.6 -1.9,1.8 -4,2.7 -6.6,2.7 -2.5,0 -4.7,-0.9 -6.5,-2.7 -1.8,-1.9 -2.7,-4 -2.7,-6.6 0,-2.5 0.9,-4.7 2.7,-6.5 z" /><path
     style="fill:#786721"
     inkscape:connector-curvature="0"
     id="path11728"
     d="m 67.327119,17.613559 c -2.2,0 -4,0.8 -5.6,2.3 -1.5,1.6 -2.3,3.4 -2.3,5.6 0,2.2 0.8,4 2.3,5.6 v 0 c 1.6,1.6 3.4,2.4 5.6,2.4 2.2,0 4,-0.8 5.6,-2.4 v 0 c 1.6,-1.6 2.3,-3.4 2.3,-5.6 v 0 c 0,-2.2 -0.7,-4 -2.3,-5.6 -1.6,-1.5 -3.4,-2.3 -5.6,-2.3 z m -4.2,3.7 c 1.2,-1.1 2.6,-1.7 4.2,-1.7 1.6,0 3,0.6 4.2,1.7 1.2,1.2 1.7,2.5 1.7,4.2 v 0 c 0,1.7 -0.5,3.1 -1.7,4.2 -1.2,1.2 -2.6,1.8 -4.2,1.8 -1.6,0 -3,-0.6 -4.2,-1.8 -1.1,-1.1 -1.7,-2.5 -1.7,-4.2 0,-1.6 0.6,-3 1.7,-4.2 z" /><path
     style="fill:#786721"
     inkscape:connector-curvature="0"
     id="path11730"
     d="m 41.627119,34.013559 c -0.4,-0.2 -0.7,-0.3 -1,-0.3 -1.2,-0.3 -2.4,-0.5 -3.6,-0.7 -1.1,2.7 -2,5.3 -2.9,7.9 h -1.4 -0.4 c -1.2,0.1 -2.3,0.2 -3.4,0.4 -0.9,0.1 -1.8,0.4 -2.7,0.7 -1.6,-2.3 -3.3,-4.6 -4.9,-6.8 l 4.9,6.8 c -0.6,0.2 -4.4,-7.1 -4.9,-6.8 -1,0.4 -0.598305,4.808475 -1.498305,5.408475 -1.4,0.7 -5.801695,-1.708475 -7.001695,-0.608475 v 0.1 c 1.2,2.5 2.3,5 3.5,7.5 -0.7,0.7 -1.3,1.3 -1.9,2.1 -0.8,0.8 -1.5,1.8 -2.1,2.8 v 0 c -0.3,0.4 -0.5,0.8 -0.7,1.3 -2.8000004,-0.5 -5.6000004,-1 -8.4000004,-1.4 -0.5,1.2 -1,2.4 -1.4,3.7 -0.4,2 -0.8,3.9 -0.99999997,5.8 l 7.79999997,3 v 1.4 c 0,1.1 0.1,2.3 0.4,3.5 0.1,1 0.4,2 0.7,3 -2.3,1.6 -4.5,3.2 -6.8,4.9 1.2,3 2.9,5.8 4.9,8.4 h 0.1 c 2.5000004,-1.2 5.0000004,-2.3 7.6000004,-3.5 v 0 c 0.6,0.6 1.2,1.1 1.8,1.7 0.9,0.8 2,1.5 3.2,2.2 0.3,0.2 0.7,0.4 1.1,0.7 -0.5,2.7 -0.9,5.5 -1.3,8.3 1.1,0.5 2.2,0.9 3.4,1.2 0.3,0.1 0.9,0.3 1.9,0.5 1.4,0.4 2.8,0.6 4.1,0.8 1.1,-2.7 2.1,-5.3 3,-8 h 1.2 0.1 c 1.2,0 2.3,-0.1 3.4,-0.3 1,-0.2 2,-0.5 3,-0.8 0,0 0,0.1 0.1,0.1 1.6,2.3 3.3,4.6 4.9,6.9 0.5,-0.3 1,-0.5 1.4,-0.7 1,-0.4 1.9,-0.9 2.8,-1.4 1.5,-0.9 2.9,-1.9 4.2,-3 -1.1,-2.6 -2.3,-5.1 -3.5,-7.7 v 0 c 0.6,-0.6 1.1,-1.2 1.7,-1.8 0.7,-0.9 1.4,-1.9 2,-2.8 0,-0.1 0.1,-0.2 0.1,-0.3 0.2,-0.3 0.4,-0.7 0.6,-1 2.8,0.5 5.6,0.9 8.4,1.4 0.5,-1.2 0.9,-2.4 1.3,-3.7 0.1,-0.3 0.2,-0.6 0.3,-1 0.1,-0.3 0.1,-0.6 0.3,-1 0.2,-1.3 0.5,-2.6 0.6,-3.8 -2.6,-1.1 -5.3,-2 -7.9,-3 v -1.2 c 0,-1.2 -0.1,-2.5 -0.4,-3.7 -0.1,-0.9 -0.4,-1.8 -0.6,-2.7 2.3,-1.6 4.6,-3.3 6.8,-5 h 0.1 c -1.2,-3 -2.8,-5.8 -5,-8.4 v 0 c -2.6,1.1 -5.1,2.3 -7.6,3.5 -0.7,-0.7 -1.4,-1.4 -2.1,-2 -0.9,-0.7 -1.8,-1.4 -2.8,-1.9 -0.3,-0.3 -0.7,-0.5 -1,-0.7 0.4,-2.8 0.9,-5.6 1.3,-8.4 -1.2,-0.5 -2.5,-1 -3.8,-1.4 -0.3,-0.1 -0.7,-0.2 -1,-0.2 z m -18.6,37.4 c -1.7,-2.9 -2.1,-5.9 -1.2,-9.1 0.8,-3.2 2.7,-5.6 5.6,-7.3 2.8,-1.6 5.9,-2 9,-1.2 3.2,0.9 5.7,2.7 7.3,5.6 1.7,2.9 2.1,5.9 1.2,9.1 -0.8,3.2 -2.7,5.6 -5.5,7.2 -3,1.7 -6,2.1 -9.1,1.2 -3.2,-0.8 -5.7,-2.7 -7.3,-5.5 z"
     sodipodi:nodetypes="cccccccccccccccccccccccsccccccccccccccccscccccccccccccccccccscccccccccccccccccccccc" /><path
     style="fill:#786721"
     inkscape:connector-curvature="0"
     id="path11732"
     d="m 23.627119,62.813559 c -0.8,2.7 -0.5,5.3 0.9,7.7 h 0.1 c 1.4,2.5 3.5,4 6.2,4.8 2.7,0.7 5.3,0.4 7.8,-1 v 0 c 2.5,-1.5 4,-3.5 4.8,-6.2 v -0.1 c 0.7,-2.7 0.3,-5.3 -1.1,-7.7 -1.4,-2.5 -3.5,-4.1 -6.2,-4.8 -2.7,-0.8 -5.4,-0.4 -7.8,1 -2.5,1.4 -4,3.5 -4.7,6.3 z m 6,-4 c 1.9,-1.1 3.8,-1.4 5.8,-0.8 2,0.5 3.6,1.7 4.7,3.6 1.1,1.8 1.3,3.8 0.8,5.8 -0.6,2 -1.8,3.6 -3.6,4.6 v 0.1 c -1.9,1 -3.8,1.3 -5.8,0.7 -2.1,-0.5 -3.6,-1.7 -4.7,-3.6 -1,-1.8 -1.3,-3.7 -0.8,-5.8 0.6,-2 1.8,-3.5 3.6,-4.6 z" /></svg>