<?xml version="1.0" encoding="UTF-8" standalone="no"?>
<!-- Created with Inkscape (http://www.inkscape.org/) -->
<svg xmlns:inkscape="http://www.inkscape.org/namespaces/inkscape" xmlns:rdf="http://www.w3.org/1999/02/22-rdf-syntax-ns#" xmlns="http://www.w3.org/2000/svg" xmlns:xlink="http://www.w3.org/1999/xlink" xmlns:ns1="http://sozi.baierouge.fr" xmlns:cc="http://creativecommons.org/ns#" xmlns:sodipodi="http://sodipodi.sourceforge.net/DTD/sodipodi-0.dtd" xmlns:dc="http://purl.org/dc/elements/1.1/" id="svg2" xml:space="preserve" viewBox="0 0 31.177 29.446" version="1.1" inkscape:version="0.91 r13725">
  <defs id="defs6">
    <radialGradient id="radialGradient24" gradientUnits="userSpaceOnUse" cy="9.4502" cx="19.725" gradientTransform="matrix(.65984 .45232 -.4776 .6968 4.9726 -5.1673)" r="14.317">
      <stop id="stop26" style="stop-color:#e3e3e3" offset="0"/>
      <stop id="stop28" style="stop-color:#969696" offset="1"/>
    </radialGradient>
    <linearGradient id="linearGradient48" y2="9.2998" gradientUnits="userSpaceOnUse" x2="32.562" gradientTransform="matrix(.65984 .45232 .45232 -.65984 -3.8151 7.6527)" y1="9.2998" x1="31.037">
      <stop id="stop50" style="stop-color:#eaeaea" offset="0"/>
      <stop id="stop52" style="stop-color:#f7f7f7" offset=".68240"/>
      <stop id="stop54" style="stop-color:#e3e3e3" offset=".84710"/>
      <stop id="stop56" style="stop-color:#9c9c9c" offset="1"/>
    </linearGradient>
    <linearGradient id="linearGradient80" y2="13.46" gradientUnits="userSpaceOnUse" x2="0.0368" gradientTransform="matrix(.45904 .6552 .6552 -.45904 -3.8149 7.6527)" y1="13.46" x1="-1.0313">
      <stop id="stop82" style="stop-color:#eaeaea" offset="0"/>
      <stop id="stop84" style="stop-color:#f7f7f7" offset=".68240"/>
      <stop id="stop86" style="stop-color:#e3e3e3" offset=".84710"/>
      <stop id="stop88" style="stop-color:#9c9c9c" offset="1"/>
    </linearGradient>
    <radialGradient id="radialGradient114" gradientUnits="userSpaceOnUse" cy="3.6499" cx="35.35" gradientTransform="matrix(.65984 .45232 -.45232 .65984 -.51339 2.8359)" r="3.2506">
      <stop id="stop116" style="stop-color:#e3e3e3" offset="0"/>
      <stop id="stop118" style="stop-color:#636363" offset="1"/>
    </radialGradient>
    <linearGradient id="linearGradient140" y2="16.603" gradientUnits="userSpaceOnUse" x2="33.521" gradientTransform="matrix(.31896 .73368 .73368 -.31896 -3.815 7.6527)" y1="16.603" x1="-5.3652">
      <stop id="stop142" style="stop-color:#9e9e9e" offset="0"/>
      <stop id="stop144" style="stop-color:#eaeaea" offset=".18430"/>
      <stop id="stop146" style="stop-color:#858585" offset=".56470"/>
      <stop id="stop148" style="stop-color:#e3e3e3" offset=".7529"/>
      <stop id="stop150" style="stop-color:#9c9c9c" offset="1"/>
    </linearGradient>
    <linearGradient id="linearGradient164" y2="14.175" gradientUnits="userSpaceOnUse" x2="38.128" gradientTransform="matrix(.45592 .65736 .65736 -.45592 -3.8143 7.6535)" y1="14.175" x1="-5.2563">
      <stop id="stop166" style="stop-color:#eaeaea" offset="0"/>
      <stop id="stop168" style="stop-color:#f7f7f7" offset=".68240"/>
      <stop id="stop170" style="stop-color:#e3e3e3" offset=".84710"/>
      <stop id="stop172" style="stop-color:#9c9c9c" offset="1"/>
    </linearGradient>
    <radialGradient id="radialGradient194" gradientUnits="userSpaceOnUse" cy="7.0498" cx="32.25" gradientTransform="matrix(.65984 .45232 -.33016 .4816 1.7008 -.39449)" r="10.412">
      <stop id="stop196" style="stop-color:#e0e0e0" offset="0"/>
      <stop id="stop198" style="stop-color:#919191" offset="1"/>
    </radialGradient>
  </defs>
  <g id="g10" transform="matrix(1.25 0 0 -1.25 0 29.446)">
    <g id="g12">
      <g id="g14">
        <g id="g16">
          <g id="g22">
            <path id="path30" style="fill-rule:evenodd;fill:url(#radialGradient24)" d="m23.348 21.229 1.019 1.132c0.332-0.582 0.524-1.402 0.574-2.468 0.012-0.864-0.289-1.746-0.898-2.649-0.684-0.988-1.59-1.738-2.723-2.258-0.902-0.425-1.98-0.742-3.226-0.949-1.285-0.203-2.125-0.39-2.524-0.566-1.269-0.547-3.015-2.278-5.226-5.18-0.856-1.109-1.875-2.711-3.055-4.812-0.562-1.067-1.117-2.094-1.668-3.082-0.348-0.434-1.168-0.512-2.461-0.235-1.328 0.289-2.125 0.582-2.394 0.883-0.184 0.168-0.348 0.41-0.5 0.723l-0.172 0.464 3.703 1.813 7.519 7.285 12.032 9.899z" inkscape:connector-curvature="0"/>
          </g>
        </g>
      </g>
      <path id="path32" style="fill-rule:evenodd;fill:#bababa" d="m20.691 15.479c-0.183 0.035-0.293 0.074-0.32 0.117l0.141 0.926 0.379 0.015 0.152-0.719c0.406 0.114 0.637 0.063 0.691-0.16 0.024-0.176-0.058-0.363-0.25-0.558l-0.164-0.114-0.343-0.136c0.156 0.105 0.218 0.199 0.195 0.281l-0.234 0.129 0.031 0.168-0.067 0.097c-0.05 0.032-0.121 0.016-0.211-0.046z" inkscape:connector-curvature="0"/>
      <path id="path34" style="fill-rule:evenodd;fill:#bababa" d="m22.191 15.486c-0.187 0.036-0.285 0.18-0.296 0.43l-0.024 0.32c-0.117 0.215-0.324 0.332-0.625 0.348 1.008 0.176 1.418 0.102 1.223-0.227-0.117-0.207-0.157-0.316-0.117-0.324 0.089-0.035 0.191 0.004 0.308 0.117l-0.043-0.082 0.231 0.016 0.222 0.102c-0.285-0.289-0.578-0.524-0.879-0.7z" inkscape:connector-curvature="0"/>
      <path id="path36" style="fill-rule:evenodd;fill:#bababa" d="m21.895 15.916c0.011-0.25 0.109-0.394 0.296-0.43l-0.707-0.386c0.192 0.195 0.274 0.382 0.25 0.558-0.054 0.223-0.285 0.274-0.691 0.16l-0.152 0.719 0.351 0.051c0.305-0.02 0.512-0.137 0.629-0.348l0.024-0.324z" inkscape:connector-curvature="0"/>
      <g id="g38">
        <g id="g40">
          <g id="g46">
            <path id="path58" style="fill-rule:evenodd;fill:url(#linearGradient48)" d="m21.895 15.916c0.011-0.25 0.109-0.394 0.296-0.43l-0.707-0.386c0.192 0.195 0.274 0.382 0.25 0.558-0.054 0.223-0.285 0.274-0.691 0.16l-0.152 0.719 0.351 0.051c0.305-0.02 0.512-0.137 0.629-0.348l0.024-0.324z" inkscape:connector-curvature="0"/>
          </g>
        </g>
      </g>
      <path id="path60" style="fill-rule:evenodd;fill:#7d7d7d" d="m0.766 1.045c-0.184 0.168-0.348 0.41-0.5 0.723l-0.172 0.464 0.097 0.067 1.219-0.57c-0.25-0.012-0.371-0.094-0.363-0.25 0.031-0.141 0.121-0.27 0.269-0.395 0.137-0.199 0.297-0.316 0.485-0.352l0.566-0.191c0.481-0.09 0.863-0.101 1.145-0.039 0.398 0.078 0.621 0.152 0.672 0.219 0.097 0.097 0.054 0.277-0.129 0.543 0.23-0.008 0.5-0.16 0.804-0.469 0.098-0.094 0.164-0.262 0.196-0.496l-0.008-0.199c-0.559-0.125-1.188-0.106-1.887 0.062-1.328 0.289-2.125 0.582-2.394 0.883z" inkscape:connector-curvature="0"/>
      <path id="path62" style="fill-rule:evenodd;fill:#7d7d7d" d="m4.793 1.674-0.152-0.203-0.586-0.207-0.09 0.133c0.258 0.238 0.488 0.351 0.695 0.328l0.133-0.051z" inkscape:connector-curvature="0"/>
      <path id="path64" style="fill-rule:evenodd;fill:#7d7d7d" d="m5.621 0.397-0.176-0.168 0.02 0.253 0.008 0.055-0.035 0.266 0.089-0.129 0.125-0.254-0.031-0.023z" inkscape:connector-curvature="0"/>
      <path id="path66" style="fill-rule:evenodd;fill:#7d7d7d" d="m4.941 1.529-0.3-0.058 0.461 0.605-0.137-0.578-0.024 0.031z" inkscape:connector-curvature="0"/>
      <path id="path68" style="fill-rule:evenodd;fill:#7d7d7d" d="m4.055 1.264 0.586 0.207 0.3 0.058 0.497-0.726 0.035-0.266-0.008-0.055-0.02-0.253c-0.168-0.082-0.3-0.125-0.398-0.129l0.008 0.203c-0.032 0.234-0.098 0.398-0.196 0.496-0.304 0.305-0.574 0.461-0.804 0.465z" inkscape:connector-curvature="0"/>
      <g id="g70">
        <g id="g72">
          <g id="g78">
            <path id="path90" style="fill-rule:evenodd;fill:url(#linearGradient80)" d="m3.766 1.404 0.617 0.231 0.332 0.082 0.055-0.012-0.008-0.055 0.66-0.613 0.105-0.219-0.011-0.058 0.015-0.231-0.433-0.152-0.047 0.211c-0.059 0.184-0.149 0.336-0.262 0.453-0.406 0.27-0.75 0.391-1.023 0.363z" inkscape:connector-curvature="0"/>
          </g>
        </g>
      </g>
      <path id="path92" style="fill-rule:evenodd;fill:#7d7d7d" d="m18.121 14.35c0.008-0.063 0.156-0.137 0.449-0.231l-1.871-0.312c0.031 0.379 0.36 0.703 0.985 0.968 0.785 0.411 1.199 0.868 1.234 1.379 0.203-0.152 0.379-0.339 0.531-0.558 0.113-0.211 0.149-0.336 0.106-0.364-0.274-0.121-0.528-0.25-0.762-0.378-0.441-0.204-0.664-0.372-0.672-0.504z" inkscape:connector-curvature="0"/>
      <path id="path94" style="fill-rule:evenodd;fill:#7d7d7d" d="m13.461 12.658c1.074 0.699 1.551 0.852 1.437 0.449-1.179-0.777-2.699-2.382-4.554-4.816-0.735-0.957-1.598-2.312-2.598-4.062-0.519-0.938-1.133-2.051-1.832-3.34-0.285 0.418-0.238 0.984 0.145 1.699 0.664 1.297 1.707 2.98 3.129 5.055 1.828 2.707 3.253 4.379 4.273 5.015z" inkscape:connector-curvature="0"/>
      <path id="path96" style="fill-rule:evenodd;fill:#7d7d7d" d="m5.367 1.049c0.063-0.184 0.024-0.484-0.109-0.902l-0.387-0.071c0.168 0.18 0.258 0.305 0.27 0.379 0.058 0.203-0.059 0.492-0.356 0.875l-0.43 0.625c0.571-0.355 0.907-0.656 1.012-0.906z" inkscape:connector-curvature="0"/>
      <path id="path98" style="fill-rule:evenodd;fill:#616161" d="m17.684 14.775c-0.625-0.265-0.954-0.589-0.985-0.964-0.398-0.082-0.777-0.192-1.129-0.34l-0.672-0.36c0.114 0.399-0.367 0.25-1.437-0.453-1.02-0.633-2.441-2.304-4.273-5.015-1.422-2.075-2.465-3.758-3.129-5.055-0.383-0.715-0.43-1.281-0.145-1.699l-0.293-0.492c-0.082-0.118-0.203-0.204-0.363-0.25 0.133 0.418 0.172 0.718 0.109 0.902-0.105 0.25-0.441 0.551-1.012 0.906l-0.636 0.438-0.68 1.277 0.758 0.375 7.519 7.285 7.059 5.762c0.16 0.047 0.301-0.035 0.414-0.25 0.137-0.199 0.18-0.426 0.129-0.688-0.035-0.507-0.449-0.968-1.234-1.379z" inkscape:connector-curvature="0"/>
      <path id="path100" style="fill-rule:evenodd;fill:#808080" d="m22.184 20.236 0.648 0.543 1.023-1.918c0.086 0.157 0.235 0.387 0.446 0.692 0.074 0.179 0.172 0.297 0.297 0.347 0.113-0.117 0.136-0.339 0.074-0.675 0.023-0.078 0.012-0.348-0.035-0.797-0.235-0.649-0.645-1.301-1.227-1.961l0.149 0.348c0.031 0.05 0.097 0.21 0.207 0.48 0.062 0.238 0.046 0.402-0.051 0.5-0.09-0.063-0.199-0.184-0.328-0.371-0.133-0.188-0.242-0.313-0.328-0.371l-0.875 3.183z" inkscape:connector-curvature="0"/>
      <path id="path102" style="fill-rule:evenodd;fill:#636363" d="m22.832 20.779 0.516 0.45 1.019 1.132c0.332-0.578 0.524-1.402 0.574-2.464 0.012-0.446-0.089-0.934-0.304-1.469 0.047 0.449 0.058 0.719 0.035 0.797 0.062 0.336 0.039 0.562-0.074 0.675-0.125-0.05-0.223-0.168-0.297-0.343-0.211-0.309-0.36-0.539-0.446-0.696l-1.023 1.918z" inkscape:connector-curvature="0"/>
      <g id="g104">
        <g id="g106">
          <g id="g112">
            <path id="path120" style="fill-rule:evenodd;fill:url(#radialGradient114)" d="m20.875 22.006c-0.012 0.25 0.027 0.457 0.113 0.613l0.52 0.938 0.211-0.586c-0.199-0.231-0.199-0.489-0.004-0.778 0.09-0.128 0.164-0.257 0.219-0.382 0.015-0.024 0.086 0.011 0.218 0.101 0.2 0.137 0.446 0.625 0.735 1.473l0.41-0.594c-0.031-0.473-0.098-0.824-0.199-1.055-0.043-0.125-0.028-0.246 0.05-0.355 0.067-0.051 0.125-0.09 0.18-0.121l-0.254-1.82c-0.414-0.153-0.832-0.297-1.262-0.426-0.835-0.285-1.292-0.403-1.359-0.352l-2.281 2.266 0.215 1.312c0.133 0.285 0.543 0.629 1.23 1.039l0.137-0.343c-0.078-0.121-0.125-0.266-0.137-0.434-0.062-0.336 0.043-0.586 0.321-0.75 0.453-0.238 0.773-0.281 0.953-0.121l-0.016 0.375z" inkscape:connector-curvature="0"/>
          </g>
        </g>
      </g>
      <path id="path122" style="fill-rule:evenodd;fill:#7d7d7d" d="m22.535 20.576 0.793 0.543-0.043-0.222c-0.109-0.172-0.226-0.286-0.351-0.34-0.086-0.063-0.219-0.055-0.399 0.019z" inkscape:connector-curvature="0"/>
      <path id="path124" style="fill-rule:evenodd;fill:#7d7d7d" d="m23.148 21.869-0.019 0.031c-0.082 0.075-0.168 0.082-0.254 0.02-0.117-0.109-0.207-0.172-0.266-0.18l-0.132 0.055 0.144 0.922c0.008-0.156 0.016-0.281 0.016-0.379 0.023-0.176 0.082-0.262 0.179-0.262 0.172-0.011 0.321 0.121 0.45 0.406l-0.118-0.613z" inkscape:connector-curvature="0"/>
      <path id="path126" style="fill-rule:evenodd;fill:#7d7d7d" d="m21.406 22.225-0.07 0.097 0.289 0.149 0.09-0.278 0.023-0.031-0.078 0.043c-0.074-0.082-0.156-0.078-0.254 0.02z" inkscape:connector-curvature="0"/>
      <path id="path128" style="fill-rule:evenodd;fill:#575757" d="m21.246 22.455 0.16-0.23c0.098-0.098 0.18-0.102 0.254-0.02l0.078-0.043 0.196-0.351 0.011-0.09c0.078 0.023 0.157 0.074 0.231 0.156 0.043 0.031 0.094 0.098 0.152 0.203 0.067-0.051 0.117-0.148 0.149-0.285l0.132-0.055c0.059 0.008 0.149 0.071 0.266 0.18 0.086 0.062 0.172 0.055 0.254-0.02l0.019-0.031-0.05-0.133c-0.043-0.129-0.028-0.246 0.05-0.355 0.067-0.051 0.125-0.09 0.176-0.121l0.004-0.145-0.793-0.543c-0.183-0.058-0.48-0.054-0.887 0.024-0.488 0.148-1.05 0.523-1.691 1.121l0.035 0.019c0.442-0.214 0.738-0.25 0.899-0.109l0.004 0.633 0.351 0.195z" inkscape:connector-curvature="0"/>
      <g id="g130">
        <g id="g132">
          <g id="g138">
            <path id="path152" style="fill-rule:evenodd;fill:url(#linearGradient140)" d="m22.887 23.385 0.054-0.008c0.067-0.477 0.004-0.855-0.183-1.148-0.153-0.297-0.16-0.563-0.035-0.797 0.152-0.223 0.382-0.207 0.699 0.039 0.308 0.215 0.562 0.551 0.762 1.011 0.492-0.765 0.48-1.808-0.036-3.132-0.429-1.164-0.984-2.051-1.675-2.649-0.817-0.691-1.633-1.152-2.446-1.386-1.203-0.274-2.347-0.559-3.437-0.852-1.434-0.367-2.395-0.754-2.895-1.16-0.734-0.766-1.523-1.547-2.363-2.348-1.008-0.984-2.418-2.82-4.223-5.512-0.902-1.332-1.742-2.601-2.527-3.82-0.238-0.262-0.887-0.285-1.937-0.066-0.715 0.093-1.254 0.175-1.625 0.242-0.629 0.121-0.969 0.308-1.016 0.566-0.051 0.258 0.492 0.953 1.625 2.086 0.664 0.68 1.887 1.891 3.672 3.629 3.133 3.117 5.426 5.078 6.879 5.879 0.793 0.449 1.304 0.832 1.539 1.152 0.109 0.172 0.187 0.434 0.234 0.789 0.164 1.602 0.703 3.055 1.617 4.36 1.039 1.551 2.387 2.558 4.043 3.015l-0.226-0.445c-0.188-0.293-0.207-0.547-0.055-0.769 0.145-0.254 0.383-0.25 0.719 0.011 0.336 0.262 0.824 0.758 1.457 1.481l0.023-0.031c-0.027-0.243-0.082-0.446-0.172-0.602-0.187-0.289-0.207-0.547-0.054-0.766 0.144-0.257 0.383-0.254 0.718 0.008 0.289 0.199 0.579 0.606 0.864 1.223z" inkscape:connector-curvature="0"/>
          </g>
        </g>
      </g>
      <g id="g154">
        <g id="g156">
          <g id="g162">
            <path id="path174" style="fill-rule:evenodd;fill:url(#linearGradient164)" d="m21.965 16.596c1.023 0.863 1.73 1.976 2.121 3.344 0.355 1.179 0.387 2.027 0.098 2.542 0.492-0.765 0.48-1.808-0.036-3.132-0.429-1.164-0.984-2.051-1.675-2.649-0.817-0.691-1.633-1.152-2.446-1.386-1.203-0.274-2.347-0.559-3.437-0.852-1.434-0.367-2.395-0.754-2.895-1.16-0.734-0.766-1.523-1.547-2.363-2.348-1.008-0.984-2.418-2.82-4.223-5.512-0.902-1.332-1.742-2.601-2.527-3.82-0.238-0.262-0.887-0.285-1.937-0.066-0.715 0.093-1.254 0.175-1.625 0.242-0.629 0.121-0.969 0.308-1.016 0.566l0.062 0.188 0.817-0.41c0.305-0.114 0.847-0.227 1.633-0.332 0.824-0.118 1.339-0.137 1.543-0.059 0.187 0.059 0.679 0.707 1.484 1.938 1.047 1.589 1.746 2.617 2.102 3.089 1.652 2.168 2.734 3.536 3.242 4.114 1.683 1.929 3.054 3.047 4.105 3.347 0.836 0.246 2.024 0.496 3.567 0.746 1.363 0.321 2.5 0.856 3.406 1.61z" inkscape:connector-curvature="0"/>
          </g>
        </g>
      </g>
      <path id="path176" style="fill-rule:evenodd;fill:#d9d9d9" d="m22.152 21.912c-0.191-0.195-0.386-0.219-0.586-0.062l-0.269 0.25 0.031 0.023c0.137-0.199 0.371-0.183 0.699 0.043 0.285 0.195 0.575 0.602 0.86 1.219-0.11-0.594-0.356-1.086-0.735-1.473z" inkscape:connector-curvature="0"/>
      <path id="path178" style="fill-rule:evenodd;fill:#d9d9d9" d="m19.922 21.982c-0.324-0.285-0.555-0.347-0.699-0.187-0.125 0.141-0.172 0.352-0.141 0.633 0.055 0.297 0.234 0.578 0.535 0.847l-0.23-0.445c-0.164-0.277-0.192-0.519-0.078-0.734 0.129-0.235 0.332-0.274 0.613-0.114z" inkscape:connector-curvature="0"/>
      <path id="path180" style="fill-rule:evenodd;fill:#d9d9d9" d="m23.047 21.315c0.148-0.028 0.273 0.023 0.375 0.156 0.308 0.215 0.562 0.551 0.766 1.011l0.089-0.132c-0.156-0.43-0.316-0.719-0.476-0.86-0.199-0.234-0.449-0.293-0.754-0.175z" inkscape:connector-curvature="0"/>
      <path id="path182" style="fill-rule:evenodd;fill:#e8e8e8" d="m22.195 21.068c0.047-0.164 0.149-0.285 0.305-0.375 0.211-0.113 0.484-0.07 0.832 0.133l0.18-0.117c0.402-0.402 0.101-1.191-0.903-2.363-1.035-1.227-2.199-2.074-3.496-2.543-1.23-0.422-2.121-0.563-2.668-0.422-0.476 0.129-0.808 0.496-1 1.105-0.14 0.489 0.008 1.192 0.45 2.106 0.382 0.808 0.761 1.41 1.14 1.801 0.629 0.593 1.07 0.797 1.324 0.617 0.098-0.098 0.286-0.113 0.567-0.051 0.316 0.059 0.617 0.184 0.906 0.379 0.477 0.293 0.773 0.285 0.887-0.023 0.121-0.27 0.383-0.321 0.781-0.145 0.352 0.145 0.539 0.176 0.562 0.098-0.007-0.039 0.028-0.063 0.102-0.078l0.031-0.122z" inkscape:connector-curvature="0"/>
      <g id="g184">
        <g id="g186">
          <g id="g192">
            <path id="path200" style="fill-rule:evenodd;fill:url(#radialGradient194)" d="m22.219 21.182c0-0.196 0.082-0.332 0.234-0.422 0.188-0.129 0.453-0.094 0.801 0.113l0.144-0.144c0.325-0.426-0.035-1.219-1.078-2.387-1.05-1.203-2.183-2.027-3.398-2.473-1.176-0.453-2.039-0.609-2.59-0.469-0.453 0.145-0.766 0.508-0.945 1.098-0.141 0.488 0.019 1.227 0.468 2.215 0.415 0.863 0.821 1.5 1.219 1.902 0.68 0.66 1.133 0.871 1.36 0.637 0.097-0.094 0.293-0.121 0.586-0.082 0.32 0.059 0.621 0.184 0.906 0.379 0.301 0.176 0.519 0.258 0.652 0.254 0.11-0.02 0.195-0.125 0.258-0.309 0.098-0.285 0.336-0.347 0.711-0.191 0.375 0.16 0.566 0.195 0.566 0.097-0.027-0.05-0.008-0.082 0.067-0.097l0.039-0.121z" inkscape:connector-curvature="0"/>
          </g>
        </g>
      </g>
    </g>
  </g>
<metadata><rdf:RDF><cc:Work><dc:format>image/svg+xml</dc:format><dc:type rdf:resource="http://purl.org/dc/dcmitype/StillImage"/><cc:license rdf:resource="http://creativecommons.org/licenses/publicdomain/"/><dc:publisher><cc:Agent rdf:about="http://openclipart.org/"><dc:title>Openclipart</dc:title></cc:Agent></dc:publisher></cc:Work><cc:License rdf:about="http://creativecommons.org/licenses/publicdomain/"><cc:permits rdf:resource="http://creativecommons.org/ns#Reproduction"/><cc:permits rdf:resource="http://creativecommons.org/ns#Distribution"/><cc:permits rdf:resource="http://creativecommons.org/ns#DerivativeWorks"/></cc:License></rdf:RDF></metadata></svg>
